<svg xmlns="http://www.w3.org/2000/svg" viewBox="0 0 500 120">
  <path id="logo" d="M96 107c18-11 22-29 22-29L69 92zM44 85l8 31c22 5 38-5 38-5zm-29 6c10 17 29 24 29 24L32 64zM6 50c-2 23 6 35 6 35l26-44zm2-8l51-14-28-16C14 24 8 42 8 42zM76 3C54-1 37 8 37 8l47 27zm36 26C102 12 83 6 83 6l13 50z" fill="#000"/>
  <text id="text_1" x="94.8" y="74.8" font-family="Arial" font-size="61.3" font-style="italic" font-weight="700" style="line-height:1.25;" fill="#000">
    <tspan x="94.8" y="74.8">ALEXPRO100</tspan>
  </text>
  <text id="text_2" x="120" y="109.2" font-family="sans-serif" font-size="40" font-weight="400" style="line-height:1.25" fill="#000">
    <tspan x="120" y="109.2">Laboratories</tspan>
  </text>
</svg>
