<svg xmlns="http://www.w3.org/2000/svg" width="600" height="150" viewBox="0 0 158.75 39.69">
  <g transform="translate(-68.54 -80.87)">
    <rect width="29.92" height="29.92" x="76.09" y="85.06" ry="2.91" style="mix-blend-mode:normal;fill:#0067cd;fill-opacity:1;stroke:#0025cc;stroke-width:.490966;stroke-linejoin:miter;stroke-miterlimit:5;stroke-dasharray:none;stroke-opacity:1"/>
    <rect width="5.81" height="15.47" x="88.02" y="85.07" ry="0" style="fill:#0067cd;fill-opacity:1;stroke:#97faff;stroke-width:.512545;stroke-linejoin:miter;stroke-miterlimit:5;stroke-dasharray:none;stroke-opacity:1"/>
    <path d="M103.8 84.14c-1.51 0-3.18.23-4.97.68h3.3c1.9-.2 3.6-.09 5 .31 2.6.75 4.21 2.43 4.54 5.04.32 2.6-.72 5.85-2.86 9.2a38.9 38.9 0 0 1-9.35 9.75c-7.96 5.97-17.07 8.72-22.29 6.9a5.7 5.7 0 0 1-4.12-5.33c-.16-2.38.76-5.35 2.8-8.58v-1.06c-2.43 3.58-3.56 6.93-3.38 9.68a6.36 6.36 0 0 0 4.51 5.85c5.58 1.94 14.77-.95 22.82-7 4.03-3.02 7.3-6.49 9.5-9.9 2.19-3.42 3.3-6.77 2.94-9.58-.35-2.82-2.18-4.73-4.95-5.52-1.04-.3-2.2-.45-3.49-.44z" style="color:#000;fill:#000;stroke-width:1.05584;stroke-miterlimit:5;-inkscape-stroke:none"/>
    <path d="M103.86 82.2c-2.89 0-6.08.82-9.18 2.62h1.35c4.03-2.04 8.12-2.4 11.34-1.56 3.5.91 5.95 3.2 6.28 6.27.63 5.8-4.43 14.14-13.23 20.76-8.8 6.63-18.87 9.68-24.64 7.67-2.83-1-4.33-3.82-4.32-7.3.01-3.31 1.42-7.18 4.39-10.43v-.93c-3.4 3.46-5.02 7.69-5.03 11.36-.02 3.67 1.62 6.81 4.75 7.9 6.18 2.16 16.33-1.05 25.24-7.76 8.9-6.7 14.15-15.1 13.48-21.34-.37-3.38-3.07-5.86-6.76-6.82a14.04 14.04 0 0 0-3.67-.45z" style="color:#000;fill:#000;stroke-width:1.05584;stroke-miterlimit:5;-inkscape-stroke:none"/>
    <path d="M93.2 95.35h-4.72v4.73zM93.41 95.43l-4.72 4.73h4.72z" style="font-variation-settings:normal;opacity:1;fill:#b0fcff;fill-opacity:1;stroke:none;stroke-width:.393082;stroke-linecap:butt;stroke-linejoin:miter;stroke-miterlimit:5;stroke-dasharray:none;stroke-dashoffset:0;stroke-opacity:1;stop-color:#000;stop-opacity:1"/>
    <path d="M92.26 94.66H87.8v4.48zM92.46 94.73 88 99.2h4.47z" style="font-variation-settings:normal;opacity:1;fill:#b0fcff;fill-opacity:1;stroke:none;stroke-width:.372294;stroke-linecap:butt;stroke-linejoin:miter;stroke-miterlimit:5;stroke-dasharray:none;stroke-dashoffset:0;stroke-opacity:1;stop-color:#000;stop-opacity:1" transform="matrix(1.056 0 0 1.056 -4.23 -4.56)"/>
    <path d="M92.26 94.66H87.8v4.48zM92.46 94.73 88 99.2h4.47z" style="font-variation-settings:normal;opacity:1;fill:#b0fcff;fill-opacity:1;stroke:none;stroke-width:.372294;stroke-linecap:butt;stroke-linejoin:miter;stroke-miterlimit:5;stroke-dasharray:none;stroke-dashoffset:0;stroke-opacity:1;stop-color:#000;stop-opacity:1" transform="matrix(1.056 0 0 1.056 -4.23 -9.54)"/>
    <path d="M92.26 94.66H87.8v4.48zM92.46 94.73 88 99.2h4.47z" style="font-variation-settings:normal;opacity:1;fill:#b0fcff;fill-opacity:1;stroke:none;stroke-width:.372294;stroke-linecap:butt;stroke-linejoin:miter;stroke-miterlimit:5;stroke-dasharray:none;stroke-dashoffset:0;stroke-opacity:1;stop-color:#000;stop-opacity:1" transform="matrix(1.056 0 0 1.056 -4.23 -14.51)"/>
  </g>
  <text xml:space="preserve" x="118.48" y="106.95" style="font-size:23.9889px;fill:#b0fcff;stroke:#0025cc;stroke-width:.15;stroke-miterlimit:5;stop-color:#000" transform="translate(-68.54 -80.87)"><tspan x="118.48" y="106.95" style="font-style:normal;font-variant:normal;font-weight:400;font-stretch:normal;font-size:23.9889px;font-family:&quot;Noto Sans&quot;;-inkscape-font-specification:&quot;Noto Sans&quot;;fill:#000;fill-opacity:1;stroke:none;stroke-width:.15">WebRepo</tspan></text>
</svg>
