<svg xmlns="http://www.w3.org/2000/svg" width="155.82" height="132.569" viewBox="0 0 41.227 35.076">
  <g transform="translate(-71.062 -82.194)">
    <rect width="28.341" height="28.341" x="76.057" y="84.909" ry="2.761" style="mix-blend-mode:normal;fill:#0067cd;fill-opacity:1;stroke:#0025cc;stroke-width:.465;stroke-linejoin:miter;stroke-miterlimit:5;stroke-dasharray:none;stroke-opacity:1"/>
    <rect width="5.501" height="14.652" x="87.357" y="84.919" ry="0" style="fill:#0067cd;fill-opacity:1;stroke:#97faff;stroke-width:.485439;stroke-linejoin:miter;stroke-miterlimit:5;stroke-dasharray:none;stroke-opacity:1"/>
    <path d="M33.696 128.066c-1.167-.836-2.573-1.591-4.194-2.243l2.528 1.83c1.58.912 2.816 1.94 3.67 3.027 1.583 2.017 1.883 4.2.689 6.38-1.194 2.18-3.799 4.093-7.297 5.466-3.498 1.372-7.88 2.21-12.59 2.29-9.42.16-17.938-2.79-20.94-7.08-1.5-2.145-1.5-4.332-.205-6.388 1.2-1.906 3.553-3.68 6.907-5.025l.589-.814c-3.845 1.401-6.573 3.343-7.96 5.546-1.392 2.21-1.386 4.704.218 6.997 3.21 4.588 11.86 7.475 21.399 7.313 4.77-.08 9.21-.924 12.783-2.326 3.573-1.402 6.288-3.358 7.578-5.713 1.29-2.354.946-4.84-.74-6.986-.632-.805-1.448-1.568-2.435-2.274z" style="color:#000;fill:#000;stroke-miterlimit:5;-inkscape-stroke:none" transform="rotate(-35.913) skewX(-.059)"/>
    <path d="M102.357 82.194c-2.738.013-5.761.779-8.696 2.483h1.278c3.815-1.93 7.69-2.266 10.739-1.474 3.318.863 5.634 3.028 5.949 5.936.596 5.503-4.198 13.391-12.53 19.666-8.33 6.274-17.867 9.166-23.332 7.261-2.687-.937-4.106-3.614-4.093-6.912.012-3.135 1.348-6.796 4.152-9.875v-.888c-3.208 3.279-4.748 7.287-4.762 10.76-.013 3.477 1.537 6.455 4.504 7.49 5.846 2.037 15.462-.996 23.899-7.35 8.436-6.354 13.41-14.314 12.77-20.219-.347-3.195-2.91-5.55-6.405-6.459a13.3 13.3 0 0 0-2.781-.406c-.229-.01-.46-.014-.692-.013z" style="color:#000;fill:#000;stroke-miterlimit:5;-inkscape-stroke:none"/>
    <path d="M92.264 94.658h-4.477v4.477zM92.463 94.728l-4.477 4.477h4.477z" style="font-variation-settings:normal;opacity:1;fill:#b0fcff;fill-opacity:1;stroke:none;stroke-width:.372294;stroke-linecap:butt;stroke-linejoin:miter;stroke-miterlimit:5;stroke-dasharray:none;stroke-dashoffset:0;stroke-opacity:1;stop-color:#000;stop-opacity:1"/>
    <path d="M92.264 94.658h-4.477v4.477zM92.463 94.728l-4.477 4.477h4.477z" style="font-variation-settings:normal;opacity:1;fill:#b0fcff;fill-opacity:1;stroke:none;stroke-width:.372294;stroke-linecap:butt;stroke-linejoin:miter;stroke-miterlimit:5;stroke-dasharray:none;stroke-dashoffset:0;stroke-opacity:1;stop-color:#000;stop-opacity:1" transform="translate(-.018 .026)"/>
    <path d="M92.264 94.658h-4.477v4.477zM92.463 94.728l-4.477 4.477h4.477z" style="font-variation-settings:normal;opacity:1;fill:#b0fcff;fill-opacity:1;stroke:none;stroke-width:.372294;stroke-linecap:butt;stroke-linejoin:miter;stroke-miterlimit:5;stroke-dasharray:none;stroke-dashoffset:0;stroke-opacity:1;stop-color:#000;stop-opacity:1" transform="translate(-.018 -4.686)"/>
    <path d="M92.264 94.658h-4.477v4.477zM92.463 94.728l-4.477 4.477h4.477z" style="font-variation-settings:normal;opacity:1;fill:#b0fcff;fill-opacity:1;stroke:none;stroke-width:.372294;stroke-linecap:butt;stroke-linejoin:miter;stroke-miterlimit:5;stroke-dasharray:none;stroke-dashoffset:0;stroke-opacity:1;stop-color:#000;stop-opacity:1" transform="translate(-.018 -9.4)"/>
  </g>
</svg>
