<?xml version="1.0" encoding="UTF-8" standalone="no"?>
<!-- Created with Inkscape (http://www.inkscape.org/) -->

<svg
   width="600"
   height="150"
   viewBox="0 0 158.75 39.687501"
   version="1.1"
   id="svg5"
   inkscape:version="1.2.2 (b0a8486541, 2022-12-01)"
   sodipodi:docname="webrepo_text.svg"
   xmlns:inkscape="http://www.inkscape.org/namespaces/inkscape"
   xmlns:sodipodi="http://sodipodi.sourceforge.net/DTD/sodipodi-0.dtd"
   xmlns:xlink="http://www.w3.org/1999/xlink"
   xmlns="http://www.w3.org/2000/svg"
   xmlns:svg="http://www.w3.org/2000/svg">
  <sodipodi:namedview
     id="namedview7"
     pagecolor="#ffffff"
     bordercolor="#000000"
     borderopacity="0.25"
     inkscape:showpageshadow="2"
     inkscape:pageopacity="0.0"
     inkscape:pagecheckerboard="0"
     inkscape:deskcolor="#d1d1d1"
     inkscape:document-units="mm"
     showgrid="false"
     inkscape:zoom="1.4142136"
     inkscape:cx="327.74398"
     inkscape:cy="98.994947"
     inkscape:window-width="1873"
     inkscape:window-height="1033"
     inkscape:window-x="0"
     inkscape:window-y="0"
     inkscape:window-maximized="0"
     inkscape:current-layer="layer1" />
  <defs
     id="defs2">
    <linearGradient
       inkscape:collect="always"
       id="linearGradient923">
      <stop
         style="stop-color:#0025cc;stop-opacity:1;"
         offset="0"
         id="stop919" />
      <stop
         style="stop-color:#0025cc;stop-opacity:0;"
         offset="1"
         id="stop921" />
    </linearGradient>
    <linearGradient
       inkscape:collect="always"
       xlink:href="#linearGradient923"
       id="linearGradient925"
       x1="121.04508"
       y1="102.03753"
       x2="227.29186"
       y2="102.03753"
       gradientUnits="userSpaceOnUse" />
  </defs>
  <g
     inkscape:label="Layer 1"
     inkscape:groupmode="layer"
     id="layer1"
     transform="translate(-70.818113,-82.193779)">
    <rect
       style="mix-blend-mode:normal;fill:#0067cd;fill-opacity:1;stroke:#0025cc;stroke-width:0.490966;stroke-linejoin:miter;stroke-miterlimit:5;stroke-dasharray:none;stroke-opacity:1"
       id="rect1989"
       width="29.92333"
       height="29.92333"
       x="78.368507"
       y="86.38726"
       ry="2.9147584" />
    <rect
       style="fill:#0067cd;fill-opacity:1;stroke:#97faff;stroke-width:0.512545;stroke-linejoin:miter;stroke-miterlimit:5;stroke-dasharray:none;stroke-opacity:1"
       id="rect6990"
       width="5.8079367"
       height="15.469822"
       x="90.299217"
       y="86.398056"
       ry="0" />
    <path
       id="path9076"
       style="color:#000000;fill:#000000;stroke-width:0.26458333;stroke-miterlimit:5;stroke:#ffffff;stroke-opacity:1;stroke-dasharray:none"
       d="m 106.07829,85.463542 c -1.51455,0.008 -3.1841,0.232259 -4.97333,0.678749 l 3.29336,10e-7 c 1.91476,-0.198258 3.6077,-0.08417 5.0099,0.317555 2.60227,0.745545 4.20881,2.428718 4.53574,5.033344 0.32691,2.604625 -0.71762,5.85441 -2.86015,9.195879 -2.14254,3.34146 -5.37076,6.77174 -9.3492,9.75732 -7.956886,5.97114 -17.065247,8.72212 -22.284765,6.90919 -2.609755,-0.90647 -3.96206,-2.77879 -4.126522,-5.33997 -0.152476,-2.37425 0.76213,-5.34976 2.798484,-8.57716 l -2e-6,-1.06178 c -2.42062,3.58052 -3.553092,6.93144 -3.376841,9.67603 0.176767,2.75267 1.72376,4.88356 4.514462,5.85286 5.581404,1.93863 14.764142,-0.94804 22.821104,-6.9943 4.0285,-3.0231 7.30455,-6.49479 9.49271,-9.90736 2.18812,-3.412589 3.30057,-6.768138 2.94743,-9.581638 -0.35314,-2.813516 -2.18438,-4.727187 -4.95369,-5.52059 -1.03848,-0.297517 -2.20831,-0.444929 -3.48869,-0.43813 z" />
    <path
       id="path10651"
       style="color:#000000;fill:#000000;stroke-width:0.26458333;stroke-miterlimit:5;stroke:#ffffff;stroke-opacity:1;stroke-dasharray:none"
       d="m 106.13613,83.520588 c -2.88994,0.01377 -6.08219,0.82222 -9.18061,2.621705 h 1.348773 c 4.027997,-2.038769 8.119077,-2.392736 11.338527,-1.556108 3.50394,0.910557 5.94867,3.197001 6.28118,6.266992 0.62938,5.810864 -4.43182,14.139213 -13.22856,20.764123 -8.796693,6.62484 -18.865958,9.67808 -24.635289,7.66704 -2.837743,-0.98914 -4.335274,-3.81586 -4.321857,-7.2982 0.01275,-3.31008 1.422951,-7.17552 4.383512,-10.4268 v -0.93684 c -3.38671,3.46128 -5.013216,7.6935 -5.027344,11.35981 -0.01415,3.6717 1.622853,6.81623 4.755626,7.90823 6.171681,2.15125 16.325244,-1.05151 25.232752,-7.75983 8.90746,-6.70826 14.15812,-15.112855 13.48281,-21.347917 -0.36536,-3.373175 -3.07227,-5.860901 -6.76187,-6.819707 -0.92241,-0.239702 -1.90676,-0.385263 -2.93651,-0.428858 -0.24137,-0.01024 -0.48517,-0.01481 -0.73114,-0.01364 z" />
    <path
       id="rect12520"
       style="font-variation-settings:normal;fill:#b0fcff;fill-opacity:1;stroke:none;stroke-width:0.393082;stroke-linecap:butt;stroke-linejoin:miter;stroke-miterlimit:5;stroke-dasharray:none;stroke-dashoffset:0;stroke-opacity:1;stop-color:#000000"
       d="m 95.480424,96.68042 h -4.727329 v 4.72733 z" />
    <path
       id="path15612"
       style="font-variation-settings:normal;fill:#b0fcff;fill-opacity:1;stroke:none;stroke-width:0.393082;stroke-linecap:butt;stroke-linejoin:miter;stroke-miterlimit:5;stroke-dasharray:none;stroke-dashoffset:0;stroke-opacity:1;stop-color:#000000"
       d="m 95.690304,96.754497 -4.727328,4.727323 h 4.727328 z" />
    <g
       id="g16505"
       transform="matrix(1.0558394,0,0,1.0558394,-1.9359369,-3.2351164)">
      <g
         id="g16482"
         transform="translate(-0.01753975)">
        <path
           id="path16476"
           style="font-variation-settings:normal;opacity:1;fill:#b0fcff;fill-opacity:1;stroke:none;stroke-width:0.372294;stroke-linecap:butt;stroke-linejoin:miter;stroke-miterlimit:5;stroke-dasharray:none;stroke-dashoffset:0;stroke-opacity:1;stop-color:#000000;stop-opacity:1"
           d="m 92.264382,94.657808 h -4.477318 v 4.477318 z" />
        <path
           id="path16478"
           style="font-variation-settings:normal;opacity:1;fill:#b0fcff;fill-opacity:1;stroke:none;stroke-width:0.372294;stroke-linecap:butt;stroke-linejoin:miter;stroke-miterlimit:5;stroke-dasharray:none;stroke-dashoffset:0;stroke-opacity:1;stop-color:#000000;stop-opacity:1"
           d="m 92.463163,94.727966 -4.477318,4.477318 h 4.477318 z" />
      </g>
      <g
         id="g16488"
         transform="translate(-0.01753975,-4.7128906)">
        <path
           id="path16484"
           style="font-variation-settings:normal;opacity:1;fill:#b0fcff;fill-opacity:1;stroke:none;stroke-width:0.372294;stroke-linecap:butt;stroke-linejoin:miter;stroke-miterlimit:5;stroke-dasharray:none;stroke-dashoffset:0;stroke-opacity:1;stop-color:#000000;stop-opacity:1"
           d="m 92.264382,94.657808 h -4.477318 v 4.477318 z" />
        <path
           id="path16486"
           style="font-variation-settings:normal;opacity:1;fill:#b0fcff;fill-opacity:1;stroke:none;stroke-width:0.372294;stroke-linecap:butt;stroke-linejoin:miter;stroke-miterlimit:5;stroke-dasharray:none;stroke-dashoffset:0;stroke-opacity:1;stop-color:#000000;stop-opacity:1"
           d="m 92.463163,94.727966 -4.477318,4.477318 h 4.477318 z" />
      </g>
      <g
         id="g16494"
         transform="translate(-0.01753975,-9.4257812)">
        <path
           id="path16490"
           style="font-variation-settings:normal;opacity:1;fill:#b0fcff;fill-opacity:1;stroke:none;stroke-width:0.372294;stroke-linecap:butt;stroke-linejoin:miter;stroke-miterlimit:5;stroke-dasharray:none;stroke-dashoffset:0;stroke-opacity:1;stop-color:#000000;stop-opacity:1"
           d="m 92.264382,94.657808 h -4.477318 v 4.477318 z" />
        <path
           id="path16492"
           style="font-variation-settings:normal;opacity:1;fill:#b0fcff;fill-opacity:1;stroke:none;stroke-width:0.372294;stroke-linecap:butt;stroke-linejoin:miter;stroke-miterlimit:5;stroke-dasharray:none;stroke-dashoffset:0;stroke-opacity:1;stop-color:#000000;stop-opacity:1"
           d="m 92.463163,94.727966 -4.477318,4.477318 h 4.477318 z" />
      </g>
    </g>
    <text
       xml:space="preserve"
       style="font-size:23.9889px;fill:#ffffff;stroke:#000000;stroke-width:0.26458333;stroke-miterlimit:5;stop-color:#000000;stroke-dasharray:none;stroke-opacity:1"
       x="120.75722"
       y="108.27464"
       id="text303"><tspan
         sodipodi:role="line"
         id="tspan301"
         style="font-style:normal;font-variant:normal;font-weight:normal;font-stretch:normal;font-size:23.9889px;font-family:'Noto Sans';-inkscape-font-specification:'Noto Sans';fill:#ffffff;fill-opacity:1;stroke:#000000;stroke-width:0.26458333;stroke-dasharray:none;stroke-opacity:1"
         x="120.75722"
         y="108.27464">WebRepo</tspan></text>
  </g>
</svg>
