<?xml version="1.0" encoding="UTF-8" standalone="no"?>
<!-- Created with Inkscape (http://www.inkscape.org/) -->

<svg
   width="600"
   height="150"
   viewBox="0 0 158.75 39.687501"
   version="1.1"
   id="svg5"
   inkscape:version="1.2.2 (b0a8486541, 2022-12-01)"
   sodipodi:docname="webrepo_text.svg"
   xmlns:inkscape="http://www.inkscape.org/namespaces/inkscape"
   xmlns:sodipodi="http://sodipodi.sourceforge.net/DTD/sodipodi-0.dtd"
   xmlns="http://www.w3.org/2000/svg"
   xmlns:svg="http://www.w3.org/2000/svg">
  <sodipodi:namedview
     id="namedview7"
     pagecolor="#ffffff"
     bordercolor="#000000"
     borderopacity="0.25"
     inkscape:showpageshadow="2"
     inkscape:pageopacity="0.0"
     inkscape:pagecheckerboard="0"
     inkscape:deskcolor="#d1d1d1"
     inkscape:document-units="mm"
     showgrid="false"
     inkscape:zoom="1.4142136"
     inkscape:cx="399.86888"
     inkscape:cy="-19.79899"
     inkscape:window-width="1873"
     inkscape:window-height="1033"
     inkscape:window-x="0"
     inkscape:window-y="0"
     inkscape:window-maximized="0"
     inkscape:current-layer="layer1" />
  <defs
     id="defs2" />
  <g
     inkscape:label="Layer 1"
     inkscape:groupmode="layer"
     id="layer1"
     transform="translate(-70.818113,-82.193779)">
    <g
       id="g1053"
       transform="translate(2.2762576,1.3266301)">
      <g
         id="g1032">
        <rect
           style="mix-blend-mode:normal;fill:#0067cd;fill-opacity:1;stroke:#0025cc;stroke-width:0.490966;stroke-linejoin:miter;stroke-miterlimit:5;stroke-dasharray:none;stroke-opacity:1"
           id="rect1989"
           width="29.92333"
           height="29.92333"
           x="76.092247"
           y="85.060631"
           ry="2.9147584" />
        <rect
           style="fill:#0067cd;fill-opacity:1;stroke:#97faff;stroke-width:0.512545;stroke-linejoin:miter;stroke-miterlimit:5;stroke-dasharray:none;stroke-opacity:1"
           id="rect6990"
           width="5.8079367"
           height="15.469822"
           x="88.022957"
           y="85.071426"
           ry="0" />
        <path
           id="path9076"
           style="color:#000000;fill:#000000;stroke-width:1.05584;stroke-miterlimit:5;-inkscape-stroke:none"
           d="m 103.80203,84.136912 c -1.51455,0.008 -3.1841,0.232259 -4.973328,0.678749 l 3.293358,10e-7 c 1.91476,-0.198258 3.6077,-0.08417 5.0099,0.317555 2.60227,0.745545 4.20881,2.428718 4.53574,5.033344 0.32691,2.604625 -0.71762,5.85441 -2.86015,9.195877 -2.14254,3.341462 -5.37076,6.771742 -9.349201,9.757322 -7.956883,5.97114 -17.065244,8.72212 -22.284762,6.90919 -2.609755,-0.90647 -3.96206,-2.77879 -4.126522,-5.33997 -0.152476,-2.37425 0.76213,-5.34976 2.798484,-8.57716 l -2e-6,-1.06178 c -2.42062,3.58052 -3.553092,6.93144 -3.376841,9.67603 0.176767,2.75267 1.72376,4.88356 4.514462,5.85286 5.581404,1.93863 14.764142,-0.94804 22.821103,-6.9943 4.028499,-3.0231 7.304549,-6.49479 9.492709,-9.907363 2.18812,-3.412586 3.30057,-6.768135 2.94743,-9.581635 -0.35314,-2.813516 -2.18438,-4.727187 -4.95369,-5.52059 -1.03848,-0.297517 -2.20831,-0.444929 -3.48869,-0.43813 z" />
        <path
           id="path10651"
           style="color:#000000;fill:#000000;stroke-width:1.05584;stroke-miterlimit:5;-inkscape-stroke:none"
           d="m 103.85987,82.193958 c -2.88994,0.01377 -6.082185,0.82222 -9.180608,2.621705 h 1.348773 c 4.027995,-2.038769 8.119075,-2.392736 11.338525,-1.556108 3.50394,0.910557 5.94867,3.197001 6.28118,6.266992 0.62938,5.810864 -4.43182,14.139213 -13.22856,20.764123 -8.796691,6.62484 -18.865956,9.67808 -24.635287,7.66704 -2.837743,-0.98914 -4.335274,-3.81586 -4.321857,-7.2982 0.01275,-3.31008 1.422951,-7.17552 4.383512,-10.4268 v -0.936836 c -3.38671,3.461276 -5.013216,7.693496 -5.027344,11.359806 -0.01415,3.6717 1.622853,6.81623 4.755626,7.90823 6.171681,2.15125 16.325244,-1.05151 25.23275,-7.75983 8.90746,-6.70826 14.15812,-15.112855 13.48281,-21.347917 -0.36536,-3.373175 -3.07227,-5.860901 -6.76187,-6.819707 -0.92241,-0.239702 -1.90676,-0.385263 -2.93651,-0.428858 -0.24137,-0.01024 -0.48517,-0.01481 -0.73114,-0.01364 z" />
        <path
           id="rect12520"
           style="font-variation-settings:normal;opacity:1;fill:#b0fcff;fill-opacity:1;stroke:none;stroke-width:0.393082;stroke-linecap:butt;stroke-linejoin:miter;stroke-miterlimit:5;stroke-dasharray:none;stroke-dashoffset:0;stroke-opacity:1;stop-color:#000000;stop-opacity:1"
           d="m 93.204166,95.35379 h -4.727329 v 4.72733 z" />
        <path
           id="path15612"
           style="font-variation-settings:normal;opacity:1;fill:#b0fcff;fill-opacity:1;stroke:none;stroke-width:0.393082;stroke-linecap:butt;stroke-linejoin:miter;stroke-miterlimit:5;stroke-dasharray:none;stroke-dashoffset:0;stroke-opacity:1;stop-color:#000000;stop-opacity:1"
           d="m 93.414046,95.427867 -4.727328,4.727323 h 4.727328 z" />
        <g
           id="g16505"
           transform="matrix(1.0558394,0,0,1.0558394,-4.2121945,-4.5617465)">
          <g
             id="g16482"
             transform="translate(-0.01753975)">
            <path
               id="path16476"
               style="font-variation-settings:normal;opacity:1;fill:#b0fcff;fill-opacity:1;stroke:none;stroke-width:0.372294;stroke-linecap:butt;stroke-linejoin:miter;stroke-miterlimit:5;stroke-dasharray:none;stroke-dashoffset:0;stroke-opacity:1;stop-color:#000000;stop-opacity:1"
               d="m 92.264382,94.657808 h -4.477318 v 4.477318 z" />
            <path
               id="path16478"
               style="font-variation-settings:normal;opacity:1;fill:#b0fcff;fill-opacity:1;stroke:none;stroke-width:0.372294;stroke-linecap:butt;stroke-linejoin:miter;stroke-miterlimit:5;stroke-dasharray:none;stroke-dashoffset:0;stroke-opacity:1;stop-color:#000000;stop-opacity:1"
               d="m 92.463163,94.727966 -4.477318,4.477318 h 4.477318 z" />
          </g>
          <g
             id="g16488"
             transform="translate(-0.01753975,-4.7128906)">
            <path
               id="path16484"
               style="font-variation-settings:normal;opacity:1;fill:#b0fcff;fill-opacity:1;stroke:none;stroke-width:0.372294;stroke-linecap:butt;stroke-linejoin:miter;stroke-miterlimit:5;stroke-dasharray:none;stroke-dashoffset:0;stroke-opacity:1;stop-color:#000000;stop-opacity:1"
               d="m 92.264382,94.657808 h -4.477318 v 4.477318 z" />
            <path
               id="path16486"
               style="font-variation-settings:normal;opacity:1;fill:#b0fcff;fill-opacity:1;stroke:none;stroke-width:0.372294;stroke-linecap:butt;stroke-linejoin:miter;stroke-miterlimit:5;stroke-dasharray:none;stroke-dashoffset:0;stroke-opacity:1;stop-color:#000000;stop-opacity:1"
               d="m 92.463163,94.727966 -4.477318,4.477318 h 4.477318 z" />
          </g>
          <g
             id="g16494"
             transform="translate(-0.01753975,-9.4257812)">
            <path
               id="path16490"
               style="font-variation-settings:normal;opacity:1;fill:#b0fcff;fill-opacity:1;stroke:none;stroke-width:0.372294;stroke-linecap:butt;stroke-linejoin:miter;stroke-miterlimit:5;stroke-dasharray:none;stroke-dashoffset:0;stroke-opacity:1;stop-color:#000000;stop-opacity:1"
               d="m 92.264382,94.657808 h -4.477318 v 4.477318 z" />
            <path
               id="path16492"
               style="font-variation-settings:normal;opacity:1;fill:#b0fcff;fill-opacity:1;stroke:none;stroke-width:0.372294;stroke-linecap:butt;stroke-linejoin:miter;stroke-miterlimit:5;stroke-dasharray:none;stroke-dashoffset:0;stroke-opacity:1;stop-color:#000000;stop-opacity:1"
               d="m 92.463163,94.727966 -4.477318,4.477318 h 4.477318 z" />
          </g>
        </g>
      </g>
      <text
         xml:space="preserve"
         style="font-size:23.9889px;fill:#b0fcff;stroke:#0025cc;stroke-width:0.15;stroke-miterlimit:5;stop-color:#000000"
         x="118.48096"
         y="106.94801"
         id="text303"><tspan
           sodipodi:role="line"
           id="tspan301"
           style="font-style:normal;font-variant:normal;font-weight:normal;font-stretch:normal;font-size:23.9889px;font-family:'Noto Sans';-inkscape-font-specification:'Noto Sans';fill:#000000;fill-opacity:1;stroke:none;stroke-width:0.15"
           x="118.48096"
           y="106.94801">WebRepo</tspan></text>
    </g>
  </g>
</svg>
