<?xml version="1.0" encoding="UTF-8" standalone="no"?>
<!-- Created with Inkscape (http://www.inkscape.org/) -->

<svg
   width="41.227318mm"
   height="35.075638mm"
   viewBox="0 0 41.227318 35.075638"
   version="1.1"
   id="svg5"
   inkscape:version="1.2.2 (b0a8486541, 2022-12-01)"
   sodipodi:docname="webrepo.svg"
   xmlns:inkscape="http://www.inkscape.org/namespaces/inkscape"
   xmlns:sodipodi="http://sodipodi.sourceforge.net/DTD/sodipodi-0.dtd"
   xmlns="http://www.w3.org/2000/svg"
   xmlns:svg="http://www.w3.org/2000/svg">
  <sodipodi:namedview
     id="namedview7"
     pagecolor="#ffffff"
     bordercolor="#000000"
     borderopacity="0.25"
     inkscape:showpageshadow="2"
     inkscape:pageopacity="0.0"
     inkscape:pagecheckerboard="0"
     inkscape:deskcolor="#d1d1d1"
     inkscape:document-units="mm"
     showgrid="false"
     inkscape:zoom="4"
     inkscape:cx="32.75"
     inkscape:cy="60.5"
     inkscape:window-width="1873"
     inkscape:window-height="1033"
     inkscape:window-x="0"
     inkscape:window-y="0"
     inkscape:window-maximized="0"
     inkscape:current-layer="layer1" />
  <defs
     id="defs2" />
  <g
     inkscape:label="Layer 1"
     inkscape:groupmode="layer"
     id="layer1"
     transform="translate(-71.062243,-82.19378)">
    <rect
       style="mix-blend-mode:normal;fill:#0067cd;fill-opacity:1;stroke:#0025cc;stroke-width:0.465;stroke-linejoin:miter;stroke-miterlimit:5;stroke-dasharray:none;stroke-opacity:1"
       id="rect1989"
       width="28.340799"
       height="28.340799"
       x="76.057442"
       y="84.909012"
       ry="2.7606082" />
    <rect
       style="fill:#0067cd;fill-opacity:1;stroke:#97faff;stroke-width:0.485439;stroke-linejoin:miter;stroke-miterlimit:5;stroke-dasharray:none;stroke-opacity:1"
       id="rect6990"
       width="5.5007768"
       height="14.651682"
       x="87.357185"
       y="84.919235"
       ry="0" />
    <path
       id="path9076"
       style="color:#000000;fill:#000000;stroke-miterlimit:5;-inkscape-stroke:none"
       d="m 33.695849,128.06561 c -1.167094,-0.83521 -2.573109,-1.59071 -4.194291,-2.24219 l 2.528137,1.82957 c 1.57984,0.91163 2.816127,1.93962 3.669657,3.02674 1.584038,2.01754 1.883554,4.20115 0.689606,6.38072 -1.193947,2.17957 -3.798588,4.09214 -7.296969,5.46506 -3.498379,1.37292 -7.879456,2.21084 -12.58973,2.29086 -9.4205454,0.16003 -17.9386424,-2.78974 -20.9396653,-7.08001 -1.5005116,-2.14513 -1.4999341,-4.3326 -0.2053671,-6.3886 1.2000603,-1.90594 3.5528067,-3.68029 6.9063993,-5.0247 l 0.5890181,-0.81447 c -3.84445898,1.4018 -6.5727215,3.34311 -7.9599734,5.54633 -1.3913464,2.20972 -1.3859063,4.70368 0.2186439,6.99754 3.2091003,4.58772 11.8595672,7.47472 21.3986065,7.31267 4.769519,-0.081 9.210286,-0.92411 12.783123,-2.32623 3.572839,-1.40214 6.288276,-3.35812 7.57798,-5.71247 1.289703,-2.35437 0.945561,-4.83962 -0.740145,-6.98666 -0.632141,-0.80513 -1.448374,-1.56808 -2.43503,-2.27416 z"
       transform="matrix(0.80991141,-0.58655222,0.5857241,0.81051051,0,0)" />
    <path
       id="path10651"
       style="color:#000000;fill:#000000;stroke-miterlimit:5;-inkscape-stroke:none"
       d="m 102.35654,82.193949 c -2.737088,0.01304 -5.760514,0.778736 -8.695074,2.483053 h 1.277442 c 3.814972,-1.930947 7.689692,-2.266194 10.738882,-1.473812 3.31862,0.862401 5.63406,3.027924 5.94899,5.935555 0.59609,5.50355 -4.19744,13.391445 -12.528953,19.665985 -8.331472,6.27447 -17.868212,9.16624 -23.332426,7.26157 -2.687666,-0.93684 -4.105998,-3.61406 -4.09329,-6.91224 0.01208,-3.13501 1.347697,-6.79602 4.151685,-9.875365 V 98.39141 c -3.207601,3.27823 -4.748087,7.28661 -4.761467,10.75903 -0.0134,3.47752 1.537026,6.45575 4.504118,7.48999 5.845285,2.03748 15.461865,-0.9959 23.898283,-7.34943 8.43638,-6.3535 13.40936,-14.313603 12.76976,-20.218917 -0.34604,-3.19478 -2.90979,-5.55094 -6.40426,-6.459038 -0.87362,-0.227025 -1.80592,-0.364888 -2.78122,-0.406177 -0.22859,-0.0097 -0.4595,-0.01403 -0.69247,-0.01292 z" />
    <path
       id="rect12520"
       style="font-variation-settings:normal;opacity:1;fill:#b0fcff;fill-opacity:1;stroke:none;stroke-width:0.372294;stroke-linecap:butt;stroke-linejoin:miter;stroke-miterlimit:5;stroke-dasharray:none;stroke-dashoffset:0;stroke-opacity:1;stop-color:#000000;stop-opacity:1"
       d="m 92.264382,94.657808 h -4.477318 v 4.477318 z" />
    <path
       id="path15612"
       style="font-variation-settings:normal;opacity:1;fill:#b0fcff;fill-opacity:1;stroke:none;stroke-width:0.372294;stroke-linecap:butt;stroke-linejoin:miter;stroke-miterlimit:5;stroke-dasharray:none;stroke-dashoffset:0;stroke-opacity:1;stop-color:#000000;stop-opacity:1"
       d="m 92.463163,94.727966 -4.477318,4.477318 h 4.477318 z" />
    <g
       id="g16505"
       transform="translate(0,0.02642078)">
      <g
         id="g16482"
         transform="translate(-0.01753975)">
        <path
           id="path16476"
           style="font-variation-settings:normal;opacity:1;fill:#b0fcff;fill-opacity:1;stroke:none;stroke-width:0.372294;stroke-linecap:butt;stroke-linejoin:miter;stroke-miterlimit:5;stroke-dasharray:none;stroke-dashoffset:0;stroke-opacity:1;stop-color:#000000;stop-opacity:1"
           d="m 92.264382,94.657808 h -4.477318 v 4.477318 z" />
        <path
           id="path16478"
           style="font-variation-settings:normal;opacity:1;fill:#b0fcff;fill-opacity:1;stroke:none;stroke-width:0.372294;stroke-linecap:butt;stroke-linejoin:miter;stroke-miterlimit:5;stroke-dasharray:none;stroke-dashoffset:0;stroke-opacity:1;stop-color:#000000;stop-opacity:1"
           d="m 92.463163,94.727966 -4.477318,4.477318 h 4.477318 z" />
      </g>
      <g
         id="g16488"
         transform="translate(-0.01753975,-4.7128906)">
        <path
           id="path16484"
           style="font-variation-settings:normal;opacity:1;fill:#b0fcff;fill-opacity:1;stroke:none;stroke-width:0.372294;stroke-linecap:butt;stroke-linejoin:miter;stroke-miterlimit:5;stroke-dasharray:none;stroke-dashoffset:0;stroke-opacity:1;stop-color:#000000;stop-opacity:1"
           d="m 92.264382,94.657808 h -4.477318 v 4.477318 z" />
        <path
           id="path16486"
           style="font-variation-settings:normal;opacity:1;fill:#b0fcff;fill-opacity:1;stroke:none;stroke-width:0.372294;stroke-linecap:butt;stroke-linejoin:miter;stroke-miterlimit:5;stroke-dasharray:none;stroke-dashoffset:0;stroke-opacity:1;stop-color:#000000;stop-opacity:1"
           d="m 92.463163,94.727966 -4.477318,4.477318 h 4.477318 z" />
      </g>
      <g
         id="g16494"
         transform="translate(-0.01753975,-9.4257812)">
        <path
           id="path16490"
           style="font-variation-settings:normal;opacity:1;fill:#b0fcff;fill-opacity:1;stroke:none;stroke-width:0.372294;stroke-linecap:butt;stroke-linejoin:miter;stroke-miterlimit:5;stroke-dasharray:none;stroke-dashoffset:0;stroke-opacity:1;stop-color:#000000;stop-opacity:1"
           d="m 92.264382,94.657808 h -4.477318 v 4.477318 z" />
        <path
           id="path16492"
           style="font-variation-settings:normal;opacity:1;fill:#b0fcff;fill-opacity:1;stroke:none;stroke-width:0.372294;stroke-linecap:butt;stroke-linejoin:miter;stroke-miterlimit:5;stroke-dasharray:none;stroke-dashoffset:0;stroke-opacity:1;stop-color:#000000;stop-opacity:1"
           d="m 92.463163,94.727966 -4.477318,4.477318 h 4.477318 z" />
      </g>
    </g>
  </g>
</svg>
